# AST/ASF file generated using VICON BodyLanguage
# -----------------------------------------------
:version 1.10
:name VICON
:units
  mass 1.0
  length 0.45
  angle deg
:documentation
   .ast/.asf automatically generated from VICON data using
   VICON BodyBuilder and BodyLanguage model FoxedUp or BRILLIANT.MOD
:root
   order TX TY TZ RX RY RZ
   axis XYZ
   position 0 0 0  
   orientation 0 0 0 
:bonedata
  begin
     id 1 
     name lhipjoint
     direction 0.655637 -0.713449 0.247245 
     length 2.52691 
     axis 0 0 0  XYZ
  end
  begin
     id 2 
     name lfemur
     direction 0.34202 -0.939693 0  
     length 7.59371  
     axis 0 0 20  XYZ
    dof rx ry rz
    limits (-160.0 20.0)
           (-70.0 70.0)
           (-60.0 70.0)
  end
  begin
     id 3 
     name ltibia
     direction 0.34202 -0.939693 0   
     length 7.28717   
     axis 0 0 20   XYZ
    dof rx
    limits (-10.0 170.0)
  end
  begin
     id 4 
     name lfoot
     direction 0.0886837 -0.243657 0.965798   
     length 2.2218   
     axis -90 7.62852e-016 20   XYZ
    dof rx rz
    limits (-45.0 90.0)
           (-70.0 20.0)
  end
  begin
     id 5 
     name ltoes
     direction 1.53547e-011 -4.22004e-011 1   
     length 1.11249   
     axis -90 7.62852e-016 20   XYZ
    dof rx
    limits (-90.0 20.0)
  end
  begin
     id 6 
     name rhipjoint
     direction -0.645062 -0.722004 0.250209   
     length 2.49697  
     axis 0 0 0  XYZ 
  end
  begin
     id 7 
     name rfemur
     direction -0.34202 -0.939693 0   
     length 7.58734   
     axis 0 0 -20   XYZ
    dof rx ry rz
    limits (-160.0 20.0)
           (-70.0 70.0)
           (-70.0 60.0)
  end
  begin
     id 8 
     name rtibia
     direction -0.34202 -0.939693 0   
     length 7.21538   
     axis 0 0 -20   XYZ
    dof rx
    limits (-10.0 170.0)
 end
 begin
     id 9 
     name rfoot
     direction -0.102907 -0.282735 0.953662   
     length 2.23735  
     axis -90 -7.62852e-016 -20   XYZ
    dof rx rz
    limits (-45.0 90.0)
           (-20.0 70.0)
  end
  begin
     id 10 
     name rtoes
     direction -1.5354e-011 -4.21751e-011 1   
     length 1.11569   
     axis -90 -7.62852e-016 -20   XYZ
    dof rx
    limits (-90.0 20.0)
  end
  begin
     id 11 
     name lowerback
     direction 0.00952301 0.997604 -0.0685217   
     length 2.05943   
     axis 0 0 0   XYZ
    dof rx ry rz
    limits (-20.0 45.0)
           (-30.0 30.0)
           (-30.0 30.0)
  end
  begin
     id 12 
     name upperback
     direction 0.00494399 0.999577 -0.0286701   
     length 2.06523   
     axis 0 0 0   XYZ
    dof rx ry rz
    limits (-20.0 45.0)
           (-30.0 30.0)
           (-30.0 30.0)
  end
  begin
     id 13 
     name thorax
     direction 0.000729686 0.999992 0.00388603   
     length 2.06807   
     axis 0 0 0   XYZ
    dof rx ry rz
    limits (-20.0 45.0)
           (-30.0 30.0)
           (-30.0 30.0)
  end
  begin
     id 14 
     name lowerneck
     direction 0.00452882 0.995459 0.0950816   
     length 1.57426   
     axis 0 0 0   XYZ
    dof rx ry rz
    limits (-20.0 45.0)
           (-30.0 30.0)
           (-30.0 30.0)
  end
  begin
     id 15 
     name upperneck
     direction 0.021922 0.997711 -0.0639762   
     length 1.56399   
     axis 0 0 0   XYZ
    dof rx ry rz
    limits (-20.0 45.0)
           (-30.0 30.0)
           (-30.0 30.0)
  end
  begin
     id 16
     name head
     direction 0.008024 0.999444 -0.0323691  
     length 1.6265  
     axis 0 0 0   XYZ
    dof rx ry rz
    limits (-20.0 45.0)
           (-30.0 30.0)
           (-30.0 30.0)
  end
  begin
     id 17 
     name lclavicle
     direction 0.967826 0.247107 -0.0474446  
     length 3.6598  
     axis 0 0 0   XYZ
    dof ry rz
    limits (-20.0 10.0)
           (0.0 20.0)
  end
  begin
     id 18 
     name lhumerus
     direction 1 -4.48971e-011 -2.90544e-027   
     length 4.86513   
     axis 180 -30 -90   XYZ
    dof rx ry rz
    limits (-60.0 90.0)
           (-90.0 90.0)
           (-90.0 90.0)
  end
  begin
     id 19
     name lradius
     direction 1 -4.48958e-011 1.79638e-026   
     length 3.35554   
     axis 180 -30 -90   XYZ
    dof rx
    limits (-10.0 170.0)
  end
  begin
     id 20
     name lwrist
     direction 1 -4.48952e-011 3.34345e-026   
     length 1.67777   
     axis -2.22354e-014 90 90   XYZ
    dof ry
    limits (-180.0 0.0)
 end
  begin
     id 21 
     name lhand
     direction 1 -4.49055e-011 6.6869e-026   
     length 0.661175   
     axis -4.26681e-014 90 90   XYZ
    dof rx rz
    limits (-90.0 90.0)
           (-45.0 45.0)
  end
  begin
     id 22 
     name lfingers
     direction 1 -4.48731e-011 1.33738e-025   
     length 0.533057   
     axis -8.53362e-014 90 90   XYZ
    dof rx
    limits (0.0 90.0)
  end
  begin
     id 23
     name lthumb
     direction 0.707107 -6.35005e-011 0.707107   
     length 0.765366   
     axis -90 45 2.85299e-015   XYZ
    dof rx rz
    limits (-45.0 45.0)
           (-45.0 45.0)
  end
  begin
     id 24 
     name rclavicle
     direction -0.973174 0.211421 -0.0907389   
     length 3.59444  
     axis 0 0 0   XYZ 
    dof ry rz
    limits (-10.0 20.0)
           (-20.0 0.0)
  end
  begin
     id 25 
     name rhumerus
     direction -1 -4.48964e-011 1.56311e-027  
     length 5.02649   
     axis 180 30 90   XYZ
    dof rx ry rz
    limits (-90.0 60.0)
           (-90.0 90.0)
           (-90.0 90.0)
  end
  begin
     id 26 
     name rradius
     direction -1 -4.48948e-011 2.01724e-026   
     length 3.36431   
     axis 180 30 90   XYZ
    dof rx
    limits (-10.0 170.0)
  end
  begin
     id 27 
     name rwrist
     direction -1 -4.49008e-011 3.34345e-026   
     length 1.68216   
     axis -2.22354e-014 -90 -90   XYZ
    dof ry
    limits (-180.0 0.0)
  end
  begin
     id 28
     name rhand
     direction -1 -4.49013e-011 6.6869e-026   
     length 0.730406   
     axis -4.26681e-014 -90 -90   XYZ
    dof rx rz
    limits (-90.0 90.0)
           (-45.0 45.0)
  end
  begin
     id 29
     name rfingers
     direction -1 -4.48867e-011 1.33738e-025   
     length 0.588872   
     axis -8.53362e-014 -90 -90   XYZ
    dof rx
    limits (0.0 90.0)
  end
  begin
     id 30
     name rthumb
     direction -0.707107 -6.34907e-011 0.707107   
     length 0.845506   
     axis -90 -45 -2.85299e-015   XYZ
    dof rx rz
    limits (-45.0 45.0)
           (-45.0 45.0)
  end
:hierarchy
  begin
    root lhipjoint rhipjoint lowerback
    lhipjoint lfemur
    lfemur ltibia
    ltibia lfoot
    lfoot ltoes
    rhipjoint rfemur
    rfemur rtibia
    rtibia rfoot
    rfoot rtoes
    lowerback upperback
    upperback thorax
    thorax lowerneck lclavicle rclavicle
    lowerneck upperneck
    upperneck head
    lclavicle lhumerus
    lhumerus lradius
    lradius lwrist
    lwrist lhand lthumb
    lhand lfingers
    rclavicle rhumerus
    rhumerus rradius
    rradius rwrist
    rwrist rhand rthumb
    rhand rfingers
  end

#!OML:ASF H:\Terrain\Patient Classification 1\Takeo\Monday\TakeoMonday.ASF
:FULLY-SPECIFIED
:DEGREES
82
root 9.5779 13.2944 -1.40626 24.0007 3.93804 2.44383
lowerback 33.6756 -3.06574 3.75148
upperback 11.0036 -2.57457 -0.449435
thorax -5.20217 -1.12208 -1.58556
lowerneck -9.51837 0.238419 0.0172517
upperneck -30.9041 -0.669684 -4.13162
head -8.12589 0.0306508 -1.39533
rclavicle 7.55382e-015 -9.74045e-015
rhumerus -32.4326 -26.0519 -74.5185
rradius 11.0487
rwrist 11.5724
rhand -35.6559 33.2948
rfingers 7.12502
rthumb -8.77779 3.49737
lclavicle 7.55382e-015 -9.74045e-015
lhumerus -34.2417 -0.474713 81.0932
lradius 26.4903
lwrist 24.2901
lhand -26.3846 17.9831
lfingers 7.12502
lthumb 0.174256 47.9628
rfemur -77.1283 2.60323 19.6183
rtibia 98.9929
rfoot -37.6927 -14.1674
rtoes -4.59251
lfemur -75.59 -6.39774 -25.9284
ltibia 96.7754
lfoot -35.4745 12.3339
ltoes -8.00031
83
root 9.56349 13.3982 -1.36917 23.1635 4.19414 2.11975
lowerback 33.7002 -2.88911 3.40775
upperback 10.8091 -2.42149 0.0398196
thorax -5.3819 -1.07283 -0.941581
lowerneck -9.46406 0.0672681 -0.586568
upperneck -30.5953 -0.799738 -3.72236
head -8.02827 -0.00624737 -1.14051
rclavicle -6.85807e-015 7.50412e-015
rhumerus -27.6528 -21.9748 -78.2476
rradius 12.3119
rwrist 6.16006
rhand -33.456 36.0638
rfingers 7.12502
rthumb -6.65439 6.18839
lclavicle -6.85807e-015 7.50412e-015
lhumerus -30.8991 -2.24228 82.1988
lradius 28.4058
lwrist 25.8836
lhand -27.896 18.5972
lfingers 7.12502
lthumb -1.28547 48.5731
rfemur -75.5669 2.82252 20.0253
rtibia 98.1311
rfoot -37.3495 -14.4868
rtoes -5.44824
lfemur -74.2016 -6.23189 -25.4308
ltibia 96.2598
lfoot -35.4634 11.5128
ltoes -5.99357
84
root 9.5542 13.4966 -1.35047 22.6064 4.01077 1.90073
lowerback 33.4517 -2.54169 2.90829
upperback 10.4465 -2.137 0.350383
thorax -5.65085 -0.961702 -0.451048
lowerneck -9.14204 -0.0514689 -1.14474
upperneck -30.354 -0.883167 -3.40855
head -7.99603 -0.0126495 -0.930032
rclavicle -7.45443e-015 1.60022e-014
rhumerus -23.394 -17.5153 -81.3989
rradius 14.05
rwrist 0.870823
rhand -33.8621 34.6781
rfingers 7.12502
rthumb -7.04646 4.81541
lclavicle -7.45443e-015 1.60022e-014
lhumerus -28.0985 -4.64674 83.0377
lradius 31.1568
lwrist 27.0032
lhand -28.5342 19.1883
lfingers 7.12502
lthumb -1.90188 49.1596
rfemur -74.6169 3.21933 20.0727
rtibia 97.2813
rfoot -36.8304 -14.2296
rtoes -4.45368
lfemur -73.1973 -5.76698 -25.2727
ltibia 95.6824
lfoot -35.0299 11.0138
ltoes -4.84807
85
root 9.54958 13.5836 -1.32674 21.9305 3.84897 1.90078
lowerback 32.6466 -2.29548 2.48734
upperback 10.6494 -2.00068 0.381635
thorax -5.72259 -0.90487 -0.292125
lowerneck -9.24326 -0.00377075 -1.06979
upperneck -29.9413 -0.810967 -3.47405
head -7.83149 0.0123409 -0.964127
rclavicle 3.37934e-015 3.37934e-015
rhumerus -19.7383 -13.8315 -83.991
rradius 16.5432
rwrist -3.01515
rhand -35.7576 33.7309
rfingers 7.12502
rthumb -8.87586 3.93758
lclavicle 3.37934e-015 3.37934e-015
lhumerus -25.311 -7.83135 83.1805
lradius 34.4289
lwrist 27.6321
lhand -29.3531 17.943
lfingers 7.12502
lthumb -2.69271 47.9058
rfemur -73.2404 3.39802 20.0456
rtibia 96.4048
rfoot -36.46 -14.3701
rtoes -4.75171
lfemur -71.9881 -5.40921 -25.4083
ltibia 94.992
lfoot -34.6027 10.731
ltoes -4.59111
86
root 9.54567 13.6668 -1.30228 21.3631 3.60828 2.11065
lowerback 31.995 -2.0556 1.83178
upperback 10.5149 -1.92853 0.308288
thorax -5.57045 -0.879319 -0.035514
lowerneck -9.74679 0.0757829 -1.09438
upperneck -29.4051 -0.622479 -3.3083
head -7.55888 0.0810899 -0.905595
rclavicle 2.33572e-014 -8.24956e-015
rhumerus -16.1961 -10.504 -85.9702
rradius 19.2273
rwrist -5.9881
rhand -36.7065 33.8972
rfingers 7.12502
rthumb -9.79148 4.14483
lclavicle 2.33572e-014 -8.24956e-015
lhumerus -22.3837 -11.4909 82.622
lradius 38.0755
lwrist 28.5594
lhand -29.8538 17.0402
lfingers 7.12502
lthumb -3.17629 46.9963
rfemur -71.9893 3.44904 19.8717
rtibia 95.5558
rfoot -35.9347 -14.877
rtoes -6.51164
lfemur -70.8011 -5.16685 -25.6909
ltibia 94.1825
lfoot -34.4121 10.1736
ltoes -3.14393
87
root 9.54106 13.7681 -1.28099 20.8013 3.47202 2.09458
lowerback 31.344 -1.89549 1.40411
upperback 10.2739 -1.87437 0.304853
thorax -5.53993 -0.862037 0.176913
lowerneck -10.1486 0.114373 -1.3515
upperneck -28.7834 -0.447523 -2.96038
head -7.277 0.154388 -0.744524
rclavicle -2.5345e-014 1.37658e-014
rhumerus -12.8205 -7.23291 -87.3852
rradius 21.9546
rwrist -7.82497
rhand -37.1359 34.9973
rfingers 7.12502
rthumb -10.2057 5.2649
lclavicle -2.5345e-014 1.37658e-014
lhumerus -19.4347 -14.7289 81.3529
lradius 41.9078
lwrist 29.1132
lhand -29.7323 18.4063
lfingers 7.12502
lthumb -3.05889 48.3641
rfemur -70.918 3.51161 19.8456
rtibia 94.6493
rfoot -35.384 -14.553
rtoes -5.82878
lfemur -69.4735 -4.86345 -25.7228
ltibia 93.2162
lfoot -34.259 9.77862
ltoes -2.03125
88
root 9.53904 13.8825 -1.26009 20.0233 3.67541 1.58032
lowerback 30.8043 -1.95338 1.62579
upperback 9.95621 -1.88945 0.406422
thorax -5.6577 -0.872847 0.160407
lowerneck -10.201 0.132965 -1.52418
upperneck -28.168 -0.316293 -2.59803
head -7.05541 0.19908 -0.592992
rclavicle 1.85864e-014 -1.1778e-014
rhumerus -9.9065 -3.94114 -88.2926
rradius 25.2688
rwrist -9.88874
rhand -35.0259 36.0732
rfingers 7.12502
rthumb -8.1698 6.25113
lclavicle 1.85864e-014 -1.1778e-014
lhumerus -16.4454 -17.5826 79.5008
lradius 45.6396
lwrist 29.082
lhand -30.1358 19.2651
lfingers 7.12502
lthumb -3.44856 49.2169
rfemur -69.3536 3.47668 20.4646
rtibia 93.5368
rfoot -35.0029 -14.0608
rtoes -4.68176
lfemur -67.9437 -4.53913 -25.2115
ltibia 92.2001
lfoot -34.0798 9.45761
ltoes -2.3502
89
root 9.53971 13.9944 -1.24059 19.1281 3.7737 1.031
lowerback 30.3571 -1.97569 1.84767
upperback 9.67706 -1.86122 0.497966
thorax -5.77091 -0.863257 0.11913
lowerneck -10.3246 0.0724121 -1.59559
upperneck -27.5787 -0.30221 -2.21373
head -6.8343 0.173991 -0.449913
rclavicle -2.05245e-014 2.18912e-014
rhumerus -7.13995 -0.619858 -88.719
rradius 29.2536
rwrist -13.0532
rhand -35.8555 33.727
rfingers 7.12502
rthumb -8.97033 3.93766
lclavicle -2.05245e-014 2.18912e-014
lhumerus -12.9669 -20.2743 77.0554
lradius 49.1591
lwrist 29.3794
lhand -29.9149 19.7463
lfingers 7.12502
lthumb -3.23527 49.7015
rfemur -67.4048 3.46715 21.1702
rtibia 92.2857
rfoot -34.6663 -13.7884
rtoes -4.34121
lfemur -66.3799 -4.18089 -24.6764
ltibia 91.1603
lfoot -33.8238 9.0944
ltoes -2.12416
90
root 9.54157 14.1157 -1.22223 18.3456 3.5919 0.755058
lowerback 29.8164 -1.83812 1.71475
upperback 9.4048 -1.74185 0.533652
thorax -5.8222 -0.812184 0.186701
lowerneck -10.6791 -0.0294662 -1.80244
upperneck -26.7633 -0.321092 -1.78188
head -6.50381 0.140549 -0.268354
rclavicle 3.47873e-016 -1.45361e-014
rhumerus -4.35381 2.72255 -88.6023
rradius 33.1016
rwrist -14.7635
rhand -35.5706 32.9907
rfingers 7.12502
rthumb -8.6954 3.18981
lclavicle 3.47873e-016 -1.45361e-014
lhumerus -8.99444 -22.4813 74.1586
lradius 52.3694
lwrist 30.0424
lhand -29.4274 20.7816
lfingers 7.12502
lthumb -2.76444 50.7435
rfemur -65.6736 3.47379 21.511
rtibia 91.0146
rfoot -34.1468 -13.4374
rtoes -4.1939
lfemur -64.8049 -3.75469 -24.5013
ltibia 89.9665
lfoot -33.4876 9.04708
ltoes -1.12821
